<svg id="Layer_1" data-name="Layer 1" xmlns="http://www.w3.org/2000/svg" viewBox="0 0 136.72 26.32"><defs><style>.cls-1{fill:#264653;}.cls-2{fill:#2a9d8f;}</style></defs><path class="cls-1" d="M245.22,295h.07a2.3,2.3,0,0,1,2.2,1.8,3.35,3.35,0,0,1,.1.79v5.91q0,5.37-5.61,7.15a11.16,11.16,0,0,1-2.64.35H239a8.41,8.41,0,0,1-7.13-3.49,6.71,6.71,0,0,1-1.07-3.57v-.09a2.33,2.33,0,0,1,1.86-2.24,1.58,1.58,0,0,1,.38,0h.19a2.33,2.33,0,0,1,2.2,1.81,2.47,2.47,0,0,0,1.45,2.52,6.86,6.86,0,0,0,2.3.44c1.92,0,3.13-.64,3.62-1.91a2,2,0,0,0,0-.35v-6.52a2.45,2.45,0,0,1,1.72-2.48A2.83,2.83,0,0,1,245.22,295Z" transform="translate(-230.83 -284.71)"/><path class="cls-2" d="M245.29,284.71a2.3,2.3,0,0,1,2.2,1.8l.1.54a2.4,2.4,0,0,1-1.58,2.2,2.89,2.89,0,0,1-.72.13h-.13a2.31,2.31,0,0,1-2.17-1.67,2.59,2.59,0,0,1-.12-.66,2.34,2.34,0,0,1,1.63-2.21A2.29,2.29,0,0,1,245.29,284.71Z" transform="translate(-230.83 -284.71)"/><path class="cls-1" d="M252.18,284.75a2.46,2.46,0,0,1,1.85,2.57v14.26a4.84,4.84,0,0,0,.57,2.24,5.35,5.35,0,0,0,4.83,2.53,5.77,5.77,0,0,0,4.06-1.5c.95-.75,1.42-2.12,1.42-4.12v-2.88a3.55,3.55,0,0,1,0-.48,2.41,2.41,0,0,1,2.3-1.86,2.28,2.28,0,0,1,.66.13,2.31,2.31,0,0,1,1.67,2.26v3.4a9.79,9.79,0,0,1-1.76,5.71,10.25,10.25,0,0,1-8.36,4h-.09a13.1,13.1,0,0,1-3.4-.54q-6.69-2.49-6.69-9.6V287.29a3.1,3.1,0,0,1,.1-.76,2.31,2.31,0,0,1,2.2-1.82h.13Z" transform="translate(-230.83 -284.71)"/><path class="cls-2" d="M268,284.84a2.28,2.28,0,0,1,1.63,2.17v.09a2.21,2.21,0,0,1-.07.53,2.29,2.29,0,0,1-2.26,1.77,3.62,3.62,0,0,1-.5,0,2.33,2.33,0,0,1-1.85-2.22V287a2.28,2.28,0,0,1,0-.4,2.34,2.34,0,0,1,2.3-1.86h0A2.08,2.08,0,0,1,268,284.84Z" transform="translate(-230.83 -284.71)"/><path class="cls-1" d="M273.69,284.71c.83,0,1.76.7,2.77,2.08l13.78,15.61h.09V287a2.29,2.29,0,0,1,1.67-2.17,2.23,2.23,0,0,1,3,1.73l0,.51v21.59a2.33,2.33,0,0,1-1.8,2.28l-.54.09q-1.26,0-2.55-1.77-13.35-15.11-14-15.92H276v6.72a2.35,2.35,0,0,1-2.15,2.39h-.22a2.32,2.32,0,0,1-2.26-1.86,2,2,0,0,1,0-.38V287.05a2.3,2.3,0,0,1,1.8-2.24A2.58,2.58,0,0,1,273.69,284.71Z" transform="translate(-230.83 -284.71)"/><path class="cls-2" d="M273.78,306.33a2.38,2.38,0,0,1,2,1.24,2.53,2.53,0,0,1,.32,1.13,2.3,2.3,0,0,1-1.73,2.21,2.13,2.13,0,0,1-.66.13,2.33,2.33,0,0,1-2.19-1.71,4.84,4.84,0,0,1-.14-.63,2.37,2.37,0,0,1,1.81-2.29A5.89,5.89,0,0,1,273.78,306.33Z" transform="translate(-230.83 -284.71)"/><path class="cls-1" d="M300.18,306.41a2.33,2.33,0,0,1,1.8,2.2c0,.05,0,.23,0,.53a2.41,2.41,0,0,1-2.33,1.9,3.28,3.28,0,0,1-1-.26,2.4,2.4,0,0,1-1.35-2.11,4,4,0,0,1,.18-.76,2.3,2.3,0,0,1,2.15-1.58A3.55,3.55,0,0,1,300.18,306.41Z" transform="translate(-230.83 -284.71)"/><path class="cls-2" d="M311.93,285.69q.45.84,9.34,19.32a14.61,14.61,0,0,1,1.54,3.69l-.13.63a2.35,2.35,0,0,1-2.2,1.71,2.46,2.46,0,0,1-1.8-.85q-.6-.88-8.55-17.63H310c-.13.21-1.17,2.4-3.12,6.59q-.89,2.46-2.55,2.46l-.5,0c-1.26-.43-1.89-1.17-1.89-2.21v-.18a1,1,0,0,1,.09-.48q0-.33,5.2-11.13c.63-1.91,1.56-2.87,2.77-2.87A2.59,2.59,0,0,1,311.93,285.69Z" transform="translate(-230.83 -284.71)"/><path class="cls-2" d="M327.42,284.71h7.05q9.64,0,12.68,8.89a16.9,16.9,0,0,1,.6,4.19,13.69,13.69,0,0,1-3.85,9.68q-3.43,3.57-9.48,3.57h-7a2.37,2.37,0,0,1-2.5-1.8,2.39,2.39,0,0,1-.09-.63,2.33,2.33,0,0,1,1.8-2.2,3.52,3.52,0,0,1,.75-.08h7.79q5.34,0,7.4-5.38a10,10,0,0,0,.48-3v-.26a8,8,0,0,0-4.35-7.53,9,9,0,0,0-3.47-.71h-5.7v3.27a2.51,2.51,0,0,1-1.61,2.71,2.89,2.89,0,0,1-.72.13,2.4,2.4,0,0,1-2.33-1.83l0-.54v-6a2.34,2.34,0,0,1,1.8-2.33A3.41,3.41,0,0,1,327.42,284.71Z" transform="translate(-230.83 -284.71)"/><path class="cls-2" d="M365.76,284.81a2.32,2.32,0,0,1,1.8,2.2,3.76,3.76,0,0,1-.08.7,2.46,2.46,0,0,1-2.48,1.71H352.24a4.35,4.35,0,0,1-1.11-.17,2.46,2.46,0,0,1-1.48-2.2l.18-.79a2.42,2.42,0,0,1,2.41-1.55H365A3.48,3.48,0,0,1,365.76,284.81Z" transform="translate(-230.83 -284.71)"/><path class="cls-1" d="M352.73,295.68a2.33,2.33,0,0,1,1.62,2.15,4.14,4.14,0,0,1-.08.62,2.34,2.34,0,0,1-2.2,1.77H352a3.54,3.54,0,0,1-.67-.09,2.44,2.44,0,0,1-1.7-2.26l.09-.52a2.34,2.34,0,0,1,2.28-1.82h.05A1.73,1.73,0,0,1,352.73,295.68Z" transform="translate(-230.83 -284.71)"/><path class="cls-2" d="M365.76,306.41a2.3,2.3,0,0,1,1.8,2.2c0,.14,0,.33,0,.57A2.48,2.48,0,0,1,365,311H352.24a2.84,2.84,0,0,1-1.05-.19,2.38,2.38,0,0,1-1.54-2.18c0-.08.05-.22.09-.44a2.35,2.35,0,0,1,2.5-1.9H365A3.69,3.69,0,0,1,365.76,306.41Z" transform="translate(-230.83 -284.71)"/><path class="cls-2" d="M365.72,295.59a2.32,2.32,0,0,1,1.84,2.24v.09a2.14,2.14,0,0,1-.13.66,2.27,2.27,0,0,1-2.21,1.64h-6.59a2.86,2.86,0,0,1-.5-.06,2.29,2.29,0,0,1-1.83-2.2v-.17a2,2,0,0,1,.12-.66,2.31,2.31,0,0,1,2.21-1.6h6.59A2.86,2.86,0,0,1,365.72,295.59Z" transform="translate(-230.83 -284.71)"/></svg>